<svg version="1.1" xmlns="http://www.w3.org/2000/svg" viewBox="-47.50006932721787 -3.71305822307461 95.00007091775674 7.43856223503853" fill="none" stroke="black" stroke-width="0.6%" vector-effect="non-scaling-stroke">
    <path d="M 44.3878 -1.32217 C 44.39 -1.32 44.39 -1.32 44.38696 -1.32192 C 44.39 -1.32 44.39 -1.32 44.38455 -1.32126 C 44.38 -1.32 44.38 -1.32 44.38065 -1.32024 C 44.38 -1.32 44.38 -1.32 44.37535 -1.3189 C 44.37 -1.32 44.37 -1.32 44.3687 -1.31727 C 44.37 -1.32 44.36 -1.32 44.36076 -1.31539 C 44.36 -1.31 44.35 -1.31 44.3516 -1.31328 C 44.35 -1.31 44.34 -1.31 44.34126 -1.31097 C 44.34 -1.31 44.33 -1.31 44.32978 -1.30849 C 44.33 -1.31 44.32 -1.31 44.31722 -1.30584 C 44.31 -1.3 44.31 -1.3 44.3036 -1.30305 C 44.3 -1.3 44.29 -1.3 44.28896 -1.30014 C 44.28 -1.3 44.28 -1.3 44.27333 -1.29712 C 44.27 -1.3 44.26 -1.3 44.25674 -1.29399 C 44.25 -1.29 44.25 -1.29 44.23922 -1.29077 C 44.23 -1.29 44.23 -1.29 44.22078 -1.28748 C 44.21 -1.29 44.21 -1.29 44.20145 -1.2841 C 44.19 -1.28 44.19 -1.28 44.18125 -1.28066 C 44.17 -1.28 44.17 -1.28 44.16019 -1.27716 C 44.15 -1.28 44.15 -1.27 44.1383 -1.27361 C 44.12 -1.27 44.11 -1.27 44.09205 -1.26634 C 44.08 -1.26 44.06 -1.26 44.04261 -1.25891 C 44.03 -1.26 44.01 -1.25 43.99006 -1.25133 C 43.97 -1.25 43.95 -1.25 43.9345 -1.24362 C 43.92 -1.24 43.9 -1.24 43.87598 -1.2358 C 43.86 -1.23 43.84 -1.23 43.81457 -1.2279 C 43.73 -1.22 43.64 -1.21 43.54109 -1.19567 C 43.44 -1.18 43.34 -1.17 43.22496 -1.16294 C 43 -1.14 42.75 -1.12 42.4704 -1.09683 C 40.32 -0.93 36.61 -0.76 31.77925 -0.63344" />
    <path d="M -44.3878 -1.32217 C -44.39 -1.32 -44.39 -1.32 -44.38715 -1.32196 C -44.39 -1.32 -44.39 -1.32 -44.38532 -1.32146 C -44.38 -1.32 -44.38 -1.32 -44.38237 -1.32067 C -44.38 -1.32 -44.38 -1.32 -44.37835 -1.31964 C -44.38 -1.32 -44.38 -1.32 -44.3733 -1.31838 C -44.37 -1.32 -44.37 -1.32 -44.36725 -1.31692 C -44.37 -1.32 -44.36 -1.32 -44.36025 -1.31527 C -44.36 -1.31 -44.36 -1.31 -44.35233 -1.31345 C -44.35 -1.31 -44.35 -1.31 -44.34352 -1.31148 C -44.34 -1.31 -44.34 -1.31 -44.33385 -1.30937 C -44.33 -1.31 -44.33 -1.31 -44.32335 -1.30714 C -44.32 -1.31 -44.32 -1.31 -44.31205 -1.30479 C -44.31 -1.3 -44.3 -1.3 -44.29996 -1.30233 C -44.3 -1.3 -44.29 -1.3 -44.28712 -1.29979 C -44.28 -1.3 -44.28 -1.3 -44.27353 -1.29716 C -44.27 -1.3 -44.26 -1.3 -44.25923 -1.29446 C -44.25 -1.29 -44.25 -1.29 -44.24422 -1.29168 C -44.24 -1.29 -44.23 -1.29 -44.22852 -1.28884 C -44.22 -1.29 -44.21 -1.28 -44.19511 -1.283 C -44.18 -1.28 -44.17 -1.28 -44.15911 -1.27697 C -44.15 -1.27 -44.13 -1.27 -44.12061 -1.27078 C -44.11 -1.27 -44.09 -1.27 -44.07966 -1.26444 C -44.07 -1.26 -44.05 -1.26 -44.03636 -1.25799 C -44.02 -1.26 -44.01 -1.25 -43.99073 -1.25142 C -43.98 -1.25 -43.96 -1.25 -43.94284 -1.24477 C -43.88 -1.24 -43.81 -1.23 -43.72946 -1.2174 C -43.65 -1.21 -43.57 -1.2 -43.48278 -1.18929 C -43.31 -1.17 -43.11 -1.15 -42.89515 -1.13232 C -41.03 -0.97 -37.69 -0.81 -33.2575 -0.67537 C -15.28 -0.13 16.59 -0.18 31.77925 -0.63344" />
    <path d="M 46.5 0.00547 C 46.5 -0.01 46.5 -0.02 46.49944 -0.03605 C 46.5 -0.05 46.5 -0.06 46.49775 -0.07752 C 46.5 -0.09 46.5 -0.11 46.49495 -0.1189 C 46.49 -0.13 46.49 -0.15 46.49103 -0.16013 C 46.49 -0.17 46.49 -0.19 46.48601 -0.20117 C 46.48 -0.21 46.48 -0.23 46.4799 -0.24197 C 46.48 -0.26 46.48 -0.27 46.47272 -0.28248 C 46.47 -0.3 46.47 -0.31 46.46448 -0.32266 C 46.46 -0.34 46.46 -0.35 46.4552 -0.36247 C 46.45 -0.38 46.45 -0.39 46.44492 -0.40185 C 46.44 -0.41 46.44 -0.43 46.43365 -0.44076 C 46.43 -0.45 46.43 -0.47 46.42142 -0.47917 C 46.42 -0.49 46.41 -0.5 46.40827 -0.51703 C 46.4 -0.53 46.4 -0.54 46.39423 -0.5543 C 46.39 -0.57 46.38 -0.58 46.37934 -0.59093 C 46.37 -0.6 46.37 -0.62 46.36365 -0.6269 C 46.36 -0.64 46.35 -0.65 46.34461 -0.66748 C 46.34 -0.68 46.33 -0.69 46.32461 -0.70709 C 46.32 -0.72 46.31 -0.73 46.30372 -0.74566 C 46.3 -0.76 46.29 -0.77 46.28203 -0.78316 C 46.27 -0.8 46.27 -0.81 46.25961 -0.81954 C 46.25 -0.83 46.24 -0.84 46.23657 -0.85476 C 46.23 -0.87 46.22 -0.88 46.21297 -0.88881 C 46.21 -0.9 46.2 -0.91 46.18891 -0.92166 C 46.18 -0.93 46.17 -0.94 46.16446 -0.95329 C 46.16 -0.96 46.15 -0.97 46.1397 -0.9837 C 46.12 -1 46.11 -1.02 46.08959 -1.04082 C 46.06 -1.08 46.02 -1.11 45.98919 -1.14056 C 44.17 -1.73 48.19 -1.61 36.0569 -2.22366 C -55.04 -3.29 -50.6 -1.26 -46.5 0.00547 C -46.5 0.02 -46.5 0.03 -46.49944 0.04698 C -46.5 0.06 -46.5 0.07 -46.49775 0.08845 C -46.5 0.1 -46.5 0.12 -46.49495 0.12983 C -46.49 0.14 -46.49 0.16 -46.49103 0.17106 C -46.49 0.18 -46.49 0.2 -46.48601 0.2121 C -46.48 0.23 -46.48 0.24 -46.4799 0.2529 C -46.48 0.27 -46.48 0.28 -46.47272 0.29341 C -46.47 0.31 -46.47 0.32 -46.46448 0.33359 C -46.46 0.35 -46.46 0.36 -46.4552 0.3734 C -46.45 0.39 -46.45 0.4 -46.44492 0.41278 C -46.44 0.43 -46.44 0.44 -46.43365 0.4517 C -46.43 0.46 -46.43 0.48 -46.42142 0.4901 C -46.42 0.5 -46.41 0.52 -46.40827 0.52796 C -46.4 0.54 -46.4 0.55 -46.39423 0.56523 C -46.39 0.58 -46.38 0.59 -46.37934 0.60186 C -46.37 0.61 -46.37 0.63 -46.36365 0.63783 C -46.36 0.65 -46.35 0.67 -46.34461 0.67842 C -46.34 0.69 -46.33 0.7 -46.32461 0.71802 C -46.32 0.73 -46.31 0.74 -46.30372 0.75659 C -46.3 0.77 -46.29 0.78 -46.28203 0.79409 C -46.27 0.81 -46.27 0.82 -46.25961 0.83047 C -46.25 0.84 -46.24 0.85 -46.23657 0.8657 C -46.23 0.88 -46.22 0.89 -46.21297 0.89974 C -46.21 0.91 -46.2 0.92 -46.18891 0.93259 C -46.18 0.94 -46.17 0.95 -46.16446 0.96422 C -46.16 0.97 -46.15 0.98 -46.1397 0.99463 C -46.12 1.01 -46.11 1.03 -46.08959 1.05175 C -46.06 1.09 -46.02 1.12 -45.98919 1.15149 C -45.67 1.43 -45.47 1.47 -45.30641 1.53366 C -58.63 1.47 -19.42 3.44 31.86036 2.36547" />
    <path d="M 46.5 0.00547 C 46.5 0.02 46.5 0.03 46.49944 0.04698 C 46.5 0.06 46.5 0.07 46.49775 0.08845 C 46.5 0.1 46.5 0.12 46.49495 0.12983 C 46.49 0.14 46.49 0.16 46.49103 0.17106 C 46.49 0.18 46.49 0.2 46.48601 0.2121 C 46.48 0.23 46.48 0.24 46.4799 0.2529 C 46.48 0.27 46.48 0.28 46.47272 0.29341 C 46.47 0.31 46.47 0.32 46.46448 0.33359 C 46.46 0.35 46.46 0.36 46.4552 0.3734 C 46.45 0.39 46.45 0.4 46.44492 0.41278 C 46.44 0.43 46.44 0.44 46.43365 0.4517 C 46.43 0.46 46.43 0.48 46.42142 0.4901 C 46.42 0.5 46.41 0.52 46.40827 0.52796 C 46.4 0.54 46.4 0.55 46.39423 0.56523 C 46.39 0.58 46.38 0.59 46.37934 0.60186 C 46.37 0.61 46.37 0.63 46.36365 0.63783 C 46.36 0.65 46.35 0.67 46.34461 0.67842 C 46.34 0.69 46.33 0.7 46.32461 0.71802 C 46.32 0.73 46.31 0.74 46.30372 0.75659 C 46.3 0.77 46.29 0.78 46.28203 0.79409 C 46.27 0.81 46.27 0.82 46.25961 0.83047 C 46.25 0.84 46.24 0.85 46.23657 0.8657 C 46.23 0.88 46.22 0.89 46.21297 0.89974 C 46.21 0.91 46.2 0.92 46.18891 0.93259 C 46.18 0.94 46.17 0.95 46.16446 0.96422 C 46.16 0.97 46.15 0.98 46.1397 0.99463 C 46.13 1 46.12 1.01 46.11472 1.0238 C 46.11 1.03 46.1 1.04 46.08959 1.05175 C 46.06 1.09 46.02 1.12 45.98919 1.15149 C 44.05 1.7 49.02 1.73 31.86036 2.36547" />
    <path d="M 44.3878 1.33311 C 44.39 1.33 44.39 1.33 44.38696 1.3328 C 44.39 1.33 44.39 1.33 44.38487 1.3322" />
    <path d="M -44.38504 1.33225 C -44.39 1.33 -44.39 1.33 -44.38702 1.33282 C -44.39 1.33 -44.39 1.33 -44.3878 1.33311" />
</svg>