<svg version="1.1" xmlns="http://www.w3.org/2000/svg" viewBox="-28.000220805068427 -4.395824646938762 56.000221805068435 8.791649293877526" fill="none" stroke="black" stroke-width="0.6%" vector-effect="non-scaling-stroke">
    <path d="M 24.02736 -1.66791 C 24.03 -1.67 24.03 -1.67 24.02579 -1.66733 C 24.02 -1.67 24.02 -1.67 24.02135 -1.66585 C 24.02 -1.67 24.02 -1.66 24.01416 -1.66358 C 24.01 -1.66 24.01 -1.66 24.00435 -1.66059 C 24 -1.66 24 -1.66 23.99205 -1.65698 C 23.99 -1.66 23.98 -1.65 23.97736 -1.65282 C 23.97 -1.65 23.97 -1.65 23.96039 -1.64816 C 23.95 -1.65 23.95 -1.64 23.94124 -1.64308 C 23.93 -1.64 23.93 -1.64 23.91998 -1.63762 C 23.91 -1.64 23.9 -1.63 23.8967 -1.63183 C 23.89 -1.63 23.88 -1.63 23.87148 -1.62575 C 23.86 -1.62 23.85 -1.62 23.84437 -1.61942 C 23.84 -1.62 23.83 -1.62 23.81544 -1.61287 C 23.81 -1.61 23.8 -1.61 23.78474 -1.60612 C 23.77 -1.6 23.76 -1.6 23.75233 -1.59921 C 23.74 -1.6 23.73 -1.59 23.71824 -1.59214 C 23.71 -1.59 23.69 -1.59 23.68253 -1.58493 C 23.67 -1.58 23.66 -1.58 23.64522 -1.57761 C 23.63 -1.58 23.62 -1.57 23.60634 -1.57017 C 23.59 -1.57 23.58 -1.57 23.56593 -1.56264 C 23.55 -1.56 23.54 -1.56 23.52402 -1.55501 C 23.51 -1.55 23.5 -1.55 23.48063 -1.5473 C 23.45 -1.54 23.42 -1.54 23.3895 -1.53165 C 23.36 -1.53 23.33 -1.52 23.2927 -1.51574 C 23.28 -1.51 23.26 -1.51 23.24223 -1.50771 C 23.23 -1.51 23.21 -1.5 23.19039 -1.49964 C 23.17 -1.5 23.16 -1.49 23.13723 -1.49155 C 23.12 -1.49 23.1 -1.49 23.08274 -1.48344 C 23.05 -1.48 23.01 -1.47 22.96992 -1.46726 C 21.82 -1.3 19.94 -1.14 17.56618 -1.00993" />
    <path d="M -24.02736 -1.66791 C -24.03 -1.67 -24.03 -1.67 -24.02629 -1.66746 C -24.03 -1.67 -24.02 -1.67 -24.02343 -1.66647 C -24.02 -1.67 -24.02 -1.67 -24.01884 -1.66497 C -24.02 -1.66 -24.01 -1.66 -24.01259 -1.66302 C -24.01 -1.66 -24.01 -1.66 -24.00474 -1.66064 C -24 -1.66 -24 -1.66 -23.99535 -1.65789 C -23.99 -1.66 -23.99 -1.66 -23.98448 -1.65479 C -23.98 -1.65 -23.98 -1.65 -23.97217 -1.65137 C -23.97 -1.65 -23.96 -1.65 -23.95847 -1.64766 C -23.95 -1.65 -23.95 -1.65 -23.94343 -1.64369 C -23.94 -1.64 -23.93 -1.64 -23.92709 -1.63949 C -23.92 -1.64 -23.92 -1.64 -23.90948 -1.63506 C -23.9 -1.63 -23.9 -1.63 -23.89064 -1.63044 C -23.88 -1.63 -23.88 -1.63 -23.87061 -1.62564 C -23.86 -1.62 -23.86 -1.62 -23.84941 -1.62068 C -23.84 -1.62 -23.83 -1.62 -23.82707 -1.61557 C -23.82 -1.61 -23.81 -1.61 -23.80363 -1.61033 C -23.8 -1.61 -23.79 -1.61 -23.77909 -1.60497 C -23.77 -1.6 -23.76 -1.6 -23.7535 -1.59949 C -23.74 -1.6 -23.74 -1.6 -23.72686 -1.59392 C -23.72 -1.59 -23.71 -1.59 -23.69919 -1.58827 C -23.69 -1.59 -23.68 -1.58 -23.67053 -1.58252 C -23.65 -1.58 -23.63 -1.57 -23.61025 -1.57083 C -23.59 -1.57 -23.57 -1.56 -23.54615 -1.55889 C -23.52 -1.55 -23.5 -1.55 -23.47834 -1.54676 C -23.46 -1.54 -23.43 -1.54 -23.4069 -1.53445 C -23.38 -1.53 -23.36 -1.53 -23.33193 -1.52201 C -22.92 -1.46 -22.37 -1.38 -21.6992 -1.31666 C -20.36 -1.18 -18.57 -1.06 -16.42705 -0.95024 C -7.11 -0.47 8.84 -0.5 17.56618 -1.00993" />
    <path d="M 27 0 C 27 -0.02 27 -0.04 26.99924 -0.05627 C 27 -0.08 27 -0.09 26.99695 -0.11248 C 27 -0.13 26.99 -0.15 26.99315 -0.16857 C 26.99 -0.19 26.99 -0.21 26.98784 -0.22448 C 26.99 -0.24 26.98 -0.26 26.98103 -0.28014 C 26.98 -0.3 26.98 -0.32 26.97274 -0.33549 C 26.97 -0.35 26.97 -0.37 26.96299 -0.39048 C 26.96 -0.41 26.96 -0.43 26.9518 -0.44505 C 26.95 -0.46 26.94 -0.48 26.9392 -0.49913 C 26.93 -0.52 26.93 -0.53 26.92521 -0.55268 C 26.92 -0.57 26.92 -0.59 26.90986 -0.60562 C 26.9 -0.62 26.9 -0.64 26.89321 -0.65792 C 26.89 -0.68 26.88 -0.69 26.87527 -0.70952 C 26.87 -0.73 26.86 -0.74 26.8561 -0.76035 C 26.85 -0.78 26.84 -0.79 26.83575 -0.81038 C 26.83 -0.83 26.82 -0.84 26.81426 -0.85954 C 26.8 -0.88 26.79 -0.9 26.7846 -0.92241 C 26.77 -0.94 26.76 -0.96 26.75316 -0.98366 C 26.74 -1 26.73 -1.02 26.72012 -1.04317 C 26.71 -1.06 26.7 -1.08 26.68563 -1.10087 C 26.67 -1.12 26.66 -1.14 26.64985 -1.15669 C 26.64 -1.17 26.63 -1.19 26.61294 -1.21056 C 26.6 -1.23 26.59 -1.25 26.57506 -1.26243 C 26.56 -1.28 26.55 -1.3 26.53636 -1.31227 C 26.52 -1.33 26.51 -1.34 26.49698 -1.36006 C 26.48 -1.38 26.47 -1.39 26.45709 -1.40578 C 26.43 -1.44 26.4 -1.46 26.37633 -1.49105 C 26.32 -1.55 26.27 -1.59 26.21487 -1.63769 C 25.39 -2.17 26.32 -2.53 14.11921 -3.1533 C -19.34 -3.73 -32.98 -2.32 -27 0 C -27 0.02 -27 0.04 -26.99924 0.05627 C -27 0.08 -27 0.09 -26.99695 0.11248 C -27 0.13 -26.99 0.15 -26.99315 0.16857 C -26.99 0.19 -26.99 0.21 -26.98784 0.22448 C -26.99 0.24 -26.98 0.26 -26.98103 0.28014 C -26.98 0.3 -26.98 0.32 -26.97274 0.33549 C -26.97 0.35 -26.97 0.37 -26.96299 0.39048 C -26.96 0.41 -26.96 0.43 -26.9518 0.44505 C -26.95 0.46 -26.94 0.48 -26.9392 0.49913 C -26.93 0.52 -26.93 0.53 -26.92521 0.55268 C -26.92 0.57 -26.92 0.59 -26.90986 0.60562 C -26.9 0.62 -26.9 0.64 -26.89321 0.65792 C -26.89 0.68 -26.88 0.69 -26.87527 0.70952 C -26.87 0.73 -26.86 0.74 -26.8561 0.76035 C -26.85 0.78 -26.84 0.79 -26.83575 0.81038 C -26.83 0.83 -26.82 0.84 -26.81426 0.85954 C -26.8 0.88 -26.79 0.9 -26.7846 0.92241 C -26.77 0.94 -26.76 0.96 -26.75316 0.98366 C -26.74 1 -26.73 1.02 -26.72012 1.04317 C -26.71 1.06 -26.7 1.08 -26.68563 1.10087 C -26.67 1.12 -26.66 1.14 -26.64985 1.15669 C -26.64 1.17 -26.63 1.19 -26.61294 1.21056 C -26.6 1.23 -26.59 1.25 -26.57506 1.26243 C -26.56 1.28 -26.55 1.3 -26.53636 1.31227 C -26.52 1.33 -26.51 1.34 -26.49698 1.36006 C -26.48 1.38 -26.47 1.39 -26.45709 1.40578 C -26.43 1.44 -26.4 1.46 -26.37633 1.49105 C -26.32 1.55 -26.27 1.59 -26.21487 1.63769 C -25.64 2.07 -25.3 2.12 -24.90186 2.24002 C -17.43 3.63 6.17 3.62 17.78916 2.98385" />
    <path d="M 27 0 C 27 0.02 27 0.04 26.99924 0.05627 C 27 0.08 27 0.09 26.99695 0.11248 C 27 0.13 26.99 0.15 26.99315 0.16857 C 26.99 0.19 26.99 0.21 26.98784 0.22448 C 26.99 0.24 26.98 0.26 26.98103 0.28014 C 26.98 0.3 26.98 0.32 26.97274 0.33549 C 26.97 0.35 26.97 0.37 26.96299 0.39048 C 26.96 0.41 26.96 0.43 26.9518 0.44505 C 26.95 0.46 26.94 0.48 26.9392 0.49913 C 26.93 0.52 26.93 0.53 26.92521 0.55268 C 26.92 0.57 26.92 0.59 26.90986 0.60562 C 26.9 0.62 26.9 0.64 26.89321 0.65792 C 26.89 0.68 26.88 0.69 26.87527 0.70952 C 26.87 0.73 26.86 0.74 26.8561 0.76035 C 26.85 0.78 26.84 0.79 26.83575 0.81038 C 26.83 0.83 26.82 0.84 26.81426 0.85954 C 26.8 0.88 26.79 0.9 26.7846 0.92241 C 26.77 0.94 26.76 0.96 26.75316 0.98366 C 26.74 1 26.73 1.02 26.72012 1.04317 C 26.71 1.06 26.7 1.08 26.68563 1.10087 C 26.67 1.12 26.66 1.14 26.64985 1.15669 C 26.64 1.17 26.63 1.19 26.61294 1.21056 C 26.6 1.23 26.59 1.25 26.57506 1.26243 C 26.56 1.28 26.55 1.3 26.53636 1.31227 C 26.52 1.33 26.51 1.34 26.49698 1.36006 C 26.48 1.38 26.47 1.39 26.45709 1.40578 C 26.44 1.42 26.43 1.44 26.41682 1.44944 C 26.4 1.46 26.39 1.48 26.37633 1.49105 C 26.32 1.55 26.27 1.59 26.21487 1.63769 C 25.35 2.23 25.53 2.43 17.78916 2.98385" />
</svg>